REM DIRINDEX 1\2\6,1\2\7,1\2\8,1\2\9,1\3\10,1\3\11,1\4\12,1\4\13,1\4\14,1\5\15,1\5\16,1\5\17
REM DIRNAME folder01,folder02,folder03,folder04,folder05,folder06,folder07,folder08,folder09,folder10,folder11,folder12,folder13,folder14,folder15,folder16,folder17
TITLE ""
FILE "1400_3_sec07_0650_0666.mp3" MP3
  TRACK 01 AUDIO
    TITLE "0:"
    INDEX 01 00:00:00
  TRACK 02 AUDIO
    TITLE "17:cjc029_5733"
    INDEX 01 00:00:15
  TRACK 03 AUDIO
    TITLE "0:"
    INDEX 01 00:01:05
  TRACK 04 AUDIO
    TITLE "16:cjc029_5734"
    INDEX 01 00:01:11
  TRACK 05 AUDIO
    TITLE "0:"
    INDEX 01 00:02:26
  TRACK 06 AUDIO
    TITLE "17:cjc029_5735"
    INDEX 01 00:03:10
  TRACK 07 AUDIO
    TITLE "0:"
    INDEX 01 00:03:74
  TRACK 08 AUDIO
    TITLE "16:cjc029_5736"
    INDEX 01 00:04:03
  TRACK 09 AUDIO
    TITLE "0:"
    INDEX 01 00:05:05
  TRACK 10 AUDIO
    TITLE "17:cjc029_5737"
    INDEX 01 00:05:63
  TRACK 11 AUDIO
    TITLE "0:"
    INDEX 01 00:08:19
  TRACK 12 AUDIO
    TITLE "16:cjc029_5738"
    INDEX 01 00:08:26
  TRACK 13 AUDIO
    TITLE "0:"
    INDEX 01 00:09:34
  TRACK 14 AUDIO
    TITLE "17:cjc029_5739"
    INDEX 01 00:10:25
  TRACK 15 AUDIO
    TITLE "0:"
    INDEX 01 00:11:70
  TRACK 16 AUDIO
    TITLE "16:cjc029_5740"
    INDEX 01 00:12:03
  TRACK 17 AUDIO
    TITLE "0:"
    INDEX 01 00:13:04
  TRACK 18 AUDIO
    TITLE "17:cjc029_5741"
    INDEX 01 00:13:65
  TRACK 19 AUDIO
    TITLE "0:"
    INDEX 01 00:14:66
  TRACK 20 AUDIO
    TITLE "16:cjc029_5742"
    INDEX 01 00:14:72
  TRACK 21 AUDIO
    TITLE "0:"
    INDEX 01 00:16:02
  TRACK 22 AUDIO
    TITLE "17:cjc029_5743"
    INDEX 01 00:16:59
  TRACK 23 AUDIO
    TITLE "0:"
    INDEX 01 00:17:70
  TRACK 24 AUDIO
    TITLE "16:cjc029_5744"
    INDEX 01 00:18:01
  TRACK 25 AUDIO
    TITLE "0:"
    INDEX 01 00:19:07
  TRACK 26 AUDIO
    TITLE "17:cjc029_5745"
    INDEX 01 00:19:67
  TRACK 27 AUDIO
    TITLE "0:"
    INDEX 01 00:22:09
  TRACK 28 AUDIO
    TITLE "16:cjc029_5746"
    INDEX 01 00:22:17
  TRACK 29 AUDIO
    TITLE "0:"
    INDEX 01 00:23:44
  TRACK 30 AUDIO
    TITLE "17:cjc029_5747"
    INDEX 01 00:24:29
  TRACK 31 AUDIO
    TITLE "0:"
    INDEX 01 00:27:10
  TRACK 32 AUDIO
    TITLE "16:cjc029_5748"
    INDEX 01 00:27:14
  TRACK 33 AUDIO
    TITLE "0:"
    INDEX 01 00:28:21
  TRACK 34 AUDIO
    TITLE "17:cjc029_5749"
    INDEX 01 00:29:05
  TRACK 35 AUDIO
    TITLE "0:"
    INDEX 01 00:30:16
  TRACK 36 AUDIO
    TITLE "16:cjc029_5750"
    INDEX 01 00:30:24
  TRACK 37 AUDIO
    TITLE "0:"
    INDEX 01 00:31:51
  TRACK 38 AUDIO
    TITLE "17:cjc029_5751"
    INDEX 01 00:32:35
  TRACK 39 AUDIO
    TITLE "0:"
    INDEX 01 00:33:52
  TRACK 40 AUDIO
    TITLE "16:cjc029_5752"
    INDEX 01 00:33:62
  TRACK 41 AUDIO
    TITLE "0:"
    INDEX 01 00:35:08
  TRACK 42 AUDIO
    TITLE "17:cjc029_5753"
    INDEX 01 00:35:70
  TRACK 43 AUDIO
    TITLE "0:"
    INDEX 01 00:37:10
  TRACK 44 AUDIO
    TITLE "16:cjc029_5754"
    INDEX 01 00:37:14
  TRACK 45 AUDIO
    TITLE "0:"
    INDEX 01 00:38:45
  TRACK 46 AUDIO
    TITLE "17:cjc029_5755"
    INDEX 01 00:39:27
  TRACK 47 AUDIO
    TITLE "0:"
    INDEX 01 00:40:28
  TRACK 48 AUDIO
    TITLE "16:cjc029_5756"
    INDEX 01 00:40:32
  TRACK 49 AUDIO
    TITLE "0:"
    INDEX 01 00:41:49
  TRACK 50 AUDIO
    TITLE "17:cjc029_5757"
    INDEX 01 00:42:33
  TRACK 51 AUDIO
    TITLE "0:"
    INDEX 01 00:43:35
  TRACK 52 AUDIO
    TITLE "16:cjc029_5758"
    INDEX 01 00:43:40
  TRACK 53 AUDIO
    TITLE "0:"
    INDEX 01 00:44:38
  TRACK 54 AUDIO
    TITLE "17:cjc029_5759"
    INDEX 01 00:45:26
  TRACK 55 AUDIO
    TITLE "0:"
    INDEX 01 00:46:35
  TRACK 56 AUDIO
    TITLE "16:cjc029_5760"
    INDEX 01 00:46:43
  TRACK 57 AUDIO
    TITLE "0:"
    INDEX 01 00:47:58
  TRACK 58 AUDIO
    TITLE "17:cjc029_5761"
    INDEX 01 00:48:44
  TRACK 59 AUDIO
    TITLE "0:"
    INDEX 01 00:51:40
  TRACK 60 AUDIO
    TITLE "16:cjc029_5762"
    INDEX 01 00:51:46
  TRACK 61 AUDIO
    TITLE "0:"
    INDEX 01 00:52:53
  TRACK 62 AUDIO
    TITLE "17:cjc029_5763"
    INDEX 01 00:53:37
  TRACK 63 AUDIO
    TITLE "0:"
    INDEX 01 00:54:52
  TRACK 64 AUDIO
    TITLE "16:cjc029_5764"
    INDEX 01 00:54:58
  TRACK 65 AUDIO
    TITLE "0:"
    INDEX 01 00:56:02
  TRACK 66 AUDIO
    TITLE "17:cjc029_5765"
    INDEX 01 00:56:63
  TRACK 67 AUDIO
    TITLE "0:"
    INDEX 01 00:57:70
  TRACK 68 AUDIO
    TITLE "16:cjc029_5766"
    INDEX 01 00:58:01
  TRACK 69 AUDIO
    TITLE "0:"
    INDEX 01 00:59:14
